<svg xmlns="http://www.w3.org/2000/svg" viewBox="0 0 1600 1200" width="1600" height="1200">
  <defs>
    <linearGradient id="hg" x1="0" y1="0" x2="1" y2="1">
      <stop offset="0" stop-color="#071b33"/>
      <stop offset="0.55" stop-color="#0a2a4a"/>
      <stop offset="1" stop-color="#0f9e94"/>
    </linearGradient>
    <radialGradient id="glow" cx="0.5" cy="0.42" r="0.5">
      <stop offset="0" stop-color="#ffffff" stop-opacity="0.18"/>
      <stop offset="1" stop-color="#ffffff" stop-opacity="0"/>
    </radialGradient>
  </defs>
  <rect width="1600" height="1200" fill="url(#hg)"/>
  <rect width="1600" height="1200" fill="url(#glow)"/>
  <g stroke="#ffffff" stroke-opacity="0.18" stroke-width="1">
    <line x1="0" y1="0" x2="0" y2="1200"/><line x1="80" y1="0" x2="80" y2="1200"/><line x1="160" y1="0" x2="160" y2="1200"/><line x1="240" y1="0" x2="240" y2="1200"/><line x1="320" y1="0" x2="320" y2="1200"/><line x1="400" y1="0" x2="400" y2="1200"/><line x1="480" y1="0" x2="480" y2="1200"/><line x1="560" y1="0" x2="560" y2="1200"/><line x1="640" y1="0" x2="640" y2="1200"/><line x1="720" y1="0" x2="720" y2="1200"/><line x1="800" y1="0" x2="800" y2="1200"/><line x1="880" y1="0" x2="880" y2="1200"/><line x1="960" y1="0" x2="960" y2="1200"/><line x1="1040" y1="0" x2="1040" y2="1200"/><line x1="1120" y1="0" x2="1120" y2="1200"/><line x1="1200" y1="0" x2="1200" y2="1200"/><line x1="1280" y1="0" x2="1280" y2="1200"/><line x1="1360" y1="0" x2="1360" y2="1200"/><line x1="1440" y1="0" x2="1440" y2="1200"/><line x1="1520" y1="0" x2="1520" y2="1200"/><line x1="1600" y1="0" x2="1600" y2="1200"/>
    <line x1="0" y1="0" x2="1600" y2="0"/><line x1="0" y1="80" x2="1600" y2="80"/><line x1="0" y1="160" x2="1600" y2="160"/><line x1="0" y1="240" x2="1600" y2="240"/><line x1="0" y1="320" x2="1600" y2="320"/><line x1="0" y1="400" x2="1600" y2="400"/><line x1="0" y1="480" x2="1600" y2="480"/><line x1="0" y1="560" x2="1600" y2="560"/><line x1="0" y1="640" x2="1600" y2="640"/><line x1="0" y1="720" x2="1600" y2="720"/><line x1="0" y1="800" x2="1600" y2="800"/><line x1="0" y1="880" x2="1600" y2="880"/><line x1="0" y1="960" x2="1600" y2="960"/><line x1="0" y1="1040" x2="1600" y2="1040"/><line x1="0" y1="1120" x2="1600" y2="1120"/><line x1="0" y1="1200" x2="1600" y2="1200"/>
  </g>
  <g stroke="#ffffff" stroke-width="3" fill="none" opacity="0.95">
    <ellipse cx="800" cy="620" rx="360" ry="360" stroke-opacity="0.25" stroke-dasharray="2 14"/>
    <ellipse cx="800" cy="620" rx="230" ry="230" stroke-opacity="0.9"/>
    <circle cx="800" cy="620" r="95" fill="#ffffff" fill-opacity="0.08"/>
    <circle cx="800" cy="620" r="42" fill="#0f9e94" fill-opacity="0.9" stroke="none"/>
    <circle cx="800" cy="620" r="14" fill="#071b33" stroke="none"/>
  </g>
</svg>